<?xml version="1.0" encoding="UTF-8" standalone="no"?> <svg xmlns="http://www.w3.org/2000/svg" viewBox="0 0 48 48"><title>Sofa</title><g id="Sofa"><path d="M43,17.025V14c0-3.776-2.993-8-7-8H12c-4.007,0-7,4.224-7,8v3.025a5.5,5.5,0,0,0-3,9.716V33a5,5,0,0,0,3,4.576V40a2,2,0,0,0,2,2H9a2,2,0,0,0,2-2V38H37v2a2,2,0,0,0,2,2h2a2,2,0,0,0,2-2V37.576A5,5,0,0,0,46,33V26.741a5.5,5.5,0,0,0-3-9.716ZM12,8H36c2.77,0,5,3.282,5,6v3.213A5.506,5.506,0,0,0,37,22.5v3.364A123.078,123.078,0,0,0,23,25a81.2,81.2,0,0,0-12,.816V22.5a5.506,5.506,0,0,0-4-5.287V14C7,11.282,9.23,8,12,8ZM9,40H7V38H9Zm32,0H39V38h2Zm3.443-14.59a1,1,0,0,0-.443.83V33a3,3,0,0,1-3,3H7a3,3,0,0,1-3-3V26.24a1,1,0,0,0-.443-.83A3.5,3.5,0,1,1,9,22.5V27a1,1,0,0,0,.366.773.99.99,0,0,0,.829.207A73.221,73.221,0,0,1,23,27a119.271,119.271,0,0,1,14.858.99A1,1,0,0,0,39,27V22.5a3.5,3.5,0,1,1,5.443,2.91Z"/></g></svg>